<svg width="160" height="50" viewBox="0 0 160 50" fill="none" xmlns="http://www.w3.org/2000/svg">
<g clip-path="url(#clip0_0_86)">
<path d="M24.9491 20.8565H23.8492C21.8312 20.8565 20.7715 21.8439 20.7715 23.3057C20.7715 24.9649 21.5053 25.735 23.013 26.7232L24.2562 27.5332L20.6725 32.7281H18.0009L21.2211 28.086C19.3661 26.8023 18.3269 25.5577 18.3269 23.4439C18.3269 20.7974 20.222 19 23.8296 19H27.4133V32.7281H24.9474L24.9491 20.8565Z" fill="white"/>
<path d="M47.407 22.7921H40.3351V23.6421C40.3351 26.0714 40.1722 29.2116 39.3163 30.8708H38.5646V34.9992H40.807V32.7281H46.244V34.9992H48.4864V30.8708H47.407V22.7921ZM44.982 30.8675H41.5579C42.2302 29.3689 42.4111 26.6608 42.4111 24.9417V24.6461H44.9795L44.982 30.8675Z" fill="white"/>
<path d="M35.1183 26.7232H31.8784V22.793H29.4526V32.7281H31.8784V28.5806H35.1183V32.7281H37.5433V22.793H35.1183V26.7232Z" fill="white"/>
<path d="M72.6561 24.4513C73.5947 24.4513 74.5111 24.7676 75 25.064V23.066C74.4881 22.7896 73.5938 22.5923 72.3916 22.5923C69.2942 22.5923 67.6841 24.7452 67.6841 27.7672C67.6841 31.0855 69.2533 32.9229 72.4931 32.9229C73.6143 32.9229 74.4087 32.7256 75 32.311V30.3962C74.3891 30.8125 73.6553 31.0681 72.6365 31.0681C70.9035 31.0681 70.191 29.7644 70.191 27.7097C70.191 25.5569 71.0673 24.4504 72.6561 24.4504" fill="white"/>
<path d="M67.3581 22.7921H64.9127L61.4885 27.3751V22.7921H59.0635V32.7281H61.4885V27.8496L65.0756 32.7281H67.8266L63.934 27.3751L67.3581 22.7921Z" fill="white"/>
<path d="M53.4388 22.5949C50.4839 22.5949 49.0778 24.7877 49.0778 27.7897C49.0778 31.2463 50.8304 32.9255 53.9286 32.9255C55.4773 32.9255 56.6181 32.5301 57.3314 32.0564V30.1416C56.5771 30.6353 55.3143 31.0698 54.1317 31.0698C52.3594 31.0698 51.6862 30.2598 51.5847 28.6006H57.433V27.3518C57.433 23.8953 55.8638 22.5916 53.4388 22.5916V22.5949ZM54.9679 26.8582H51.5847C51.6461 25.2764 52.2365 24.4481 53.3987 24.4481C54.601 24.4481 54.9679 25.4163 54.9679 26.6609V26.8582Z" fill="white"/>
</g>
<path fill-rule="evenodd" clip-rule="evenodd" d="M82.4099 20.1987C82.4099 20.621 82.4099 21.1241 82.4037 21.7017C82.3975 22.2793 82.3788 22.8383 82.3478 23.3787L81.8882 34.0181H81L81.6708 18.4596H82.8695L85.1986 28.0555C85.298 28.4344 85.3787 28.8008 85.4346 29.1673C85.4967 29.5275 85.5402 29.8753 85.5651 30.2107H85.6085C85.6831 29.5275 85.8135 28.8071 85.9998 28.0555L88.3973 18.4596H89.6146L90.2916 34.0181H89.2419L88.7885 23.2917C88.7575 22.683 88.7451 22.1303 88.7451 21.6396V20.18H88.6768C88.6084 20.6707 88.5277 21.1489 88.4532 21.6023C88.3724 22.062 88.273 22.5216 88.155 22.9874L85.9812 31.5771H85.1303L82.9813 22.9874C82.8633 22.565 82.7639 22.1303 82.6832 21.6831C82.6024 21.2297 82.5341 20.739 82.4782 20.1987H82.4099ZM92.9872 28.7077C93.0182 30.2169 93.2232 31.366 93.6207 32.1548C94.012 32.9436 94.602 33.3411 95.4032 33.3411C95.7635 33.3411 96.0864 33.2852 96.3597 33.1672C96.633 33.0491 96.869 32.9125 97.0553 32.7572C97.2727 32.5957 97.4591 32.397 97.6205 32.1672L97.9497 32.9932C97.7758 33.2417 97.5646 33.4529 97.3162 33.6268C97.0988 33.782 96.8317 33.9249 96.5088 34.0491C96.192 34.1733 95.8131 34.2354 95.3784 34.2354C94.2169 34.2354 93.366 33.7324 92.8133 32.7324C92.2605 31.7324 91.9872 30.335 91.9872 28.5338C91.9872 27.6332 92.0679 26.832 92.2232 26.1301C92.3847 25.4283 92.6083 24.8258 92.8878 24.3352C93.1735 23.8383 93.5089 23.4656 93.9002 23.211C94.2915 22.9625 94.72 22.8321 95.1858 22.8321C95.6641 22.8321 96.0926 22.9563 96.4653 23.2048C96.8442 23.447 97.1547 23.8197 97.4032 24.3103C97.6516 24.8072 97.8255 25.4159 97.9249 26.1488C98.0242 26.8817 98.0367 27.7326 97.9497 28.7077H92.9872ZM95.1858 23.683C94.602 23.683 94.1051 24.0433 93.6952 24.7575C93.2791 25.478 93.0493 26.5214 93.0058 27.9003H96.987C97.074 26.4407 96.9373 25.3662 96.5647 24.6954C96.1982 24.0184 95.7386 23.683 95.1858 23.683ZM102.453 23.9004V34.0181H101.428V23.9004H98.8814V23.0495H104.974V23.9004H102.453ZM109.676 33.4094C110.372 33.4094 110.931 32.987 111.347 32.1548C111.769 31.3225 111.98 30.0368 111.98 28.2915C111.98 26.8444 111.8 25.7202 111.434 24.919C111.073 24.124 110.57 23.7265 109.937 23.7265C109.688 23.7265 109.452 23.7886 109.229 23.9128C109.005 24.0308 108.794 24.1985 108.595 24.3973C108.403 24.6022 108.223 24.8383 108.061 25.1053C107.906 25.3724 107.769 25.6519 107.651 25.9438V32.0802C107.869 32.5274 108.136 32.8628 108.459 33.0802C108.775 33.2976 109.179 33.4094 109.676 33.4094ZM109.608 34.2106C109.185 34.2106 108.806 34.1236 108.465 33.9373C108.123 33.7572 107.856 33.5274 107.651 33.2541V37.4092H106.626V23.0495H107.521L107.608 24.8569C107.856 24.3352 108.179 23.8693 108.589 23.4532C108.993 23.0371 109.502 22.8321 110.111 22.8321C110.558 22.8321 110.968 22.9625 111.328 23.2234C111.688 23.4843 111.993 23.8507 112.241 24.3227C112.49 24.7948 112.676 25.36 112.806 26.0183C112.937 26.6829 113.005 27.4096 113.005 28.2046C113.005 30.2232 112.688 31.7262 112.067 32.72C111.446 33.7137 110.626 34.2106 109.608 34.2106ZM119.986 26.3786C119.986 26.0867 119.992 25.8258 120.011 25.5836C120.023 25.3476 120.042 25.1115 120.073 24.8755H120.011C119.937 25.124 119.85 25.36 119.744 25.5836C119.645 25.8072 119.539 26.0432 119.421 26.2916L115.85 34.0181H114.98V23.0495H115.943V30.6641C115.943 30.9561 115.93 31.2231 115.918 31.4716C115.906 31.72 115.881 31.9622 115.85 32.2107H115.918C115.993 31.9622 116.08 31.72 116.179 31.484C116.278 31.2418 116.39 30.9995 116.508 30.7511L120.073 23.0495H120.968V34.0181H119.986V26.3786ZM124.446 34.0181H123.421V23.0495H124.446V28.2046L128.123 23.0495H129.123L125.514 28.1425L129.383 34.0181H128.253L124.446 28.335V34.0181ZM132.781 33.4094C133.284 33.4094 133.719 33.1982 134.073 32.7759C134.427 32.3535 134.706 31.8504 134.911 31.2542V28.2294H133.737C132.824 28.2294 132.147 28.4468 131.713 28.8816C131.278 29.3164 131.06 30.012 131.06 30.9685C131.06 31.7511 131.216 32.3535 131.526 32.7759C131.843 33.1982 132.259 33.4094 132.781 33.4094ZM135.215 34.0181C135.172 33.869 135.122 33.6889 135.073 33.4591C135.023 33.2355 134.986 32.9311 134.955 32.5336C134.694 33.0616 134.365 33.4715 133.973 33.7758C133.582 34.0802 133.11 34.2354 132.563 34.2354C131.824 34.2354 131.222 33.9559 130.756 33.397C130.29 32.838 130.06 32.0554 130.06 31.0554C130.06 29.8816 130.371 28.9934 130.998 28.3909C131.619 27.7885 132.526 27.4903 133.712 27.4903H134.911V26.1177C134.911 25.2792 134.762 24.6706 134.452 24.2917C134.147 23.9128 133.694 23.7265 133.085 23.7265C132.619 23.7265 132.185 23.8321 131.781 24.0433C131.371 24.2482 131.036 24.5463 130.775 24.919L130.495 23.9439C130.713 23.652 131.042 23.3973 131.483 23.1675C131.93 22.9439 132.458 22.8321 133.085 22.8321C133.998 22.8321 134.7 23.093 135.184 23.6085C135.669 24.1178 135.911 24.919 135.911 26.0121V31.9933C135.911 32.3722 135.936 32.751 135.979 33.1361C136.023 33.5212 136.079 33.8131 136.153 34.0181H135.215Z" fill="white"/>
<defs>
<clipPath id="clip0_0_86">
<rect width="57" height="16" fill="white" transform="translate(18 19)"/>
</clipPath>
</defs>
</svg>
