<svg width="156" height="50" viewBox="0 0 156 50" fill="none" xmlns="http://www.w3.org/2000/svg">
<g clip-path="url(#clip0_0_62)">
<mask id="mask0_0_62" style="mask-type:alpha" maskUnits="userSpaceOnUse" x="36" y="15" width="85" height="20">
<path fill-rule="evenodd" clip-rule="evenodd" d="M36 15H121V35H36V15Z" fill="white"/>
</mask>
<g mask="url(#mask0_0_62)">
<path fill-rule="evenodd" clip-rule="evenodd" d="M41.726 24.6136C43.742 24.6136 45.0325 24.2547 45.9736 23.4534C46.8068 22.7351 47.2099 21.7684 47.2099 20.5806C47.2099 19.1164 46.592 18.122 45.6244 17.459C44.5756 16.7407 43.2855 16.5476 41.1081 16.5476H37.6406L37.6402 24.6136H41.726ZM36.0004 15L41.2153 15.0004C43.4734 15.0004 45.2208 15.2769 46.592 16.1887C47.909 17.0724 48.8497 18.5086 48.8497 20.4977C48.8501 22.3209 48.0435 23.8124 46.8068 24.7238C45.9199 25.3872 44.8715 25.7185 43.6617 25.912L50.1667 34.9996L48.1776 35L41.8332 26.0498H37.6402L37.6398 34.9996H36L36.0004 15Z" fill="white"/>
<path fill-rule="evenodd" clip-rule="evenodd" d="M69.0559 21.25H70.2361L70.2358 35H69.0556L69.0559 21.25Z" fill="white"/>
<path fill-rule="evenodd" clip-rule="evenodd" d="M75.2826 32.1643C76.7158 33.0737 78.554 33.5556 80.311 33.5556C82.5551 33.5556 83.9883 32.7797 83.9886 31.2014C83.9883 29.222 81.7713 29.0078 79.6899 28.6866C77.4729 28.339 74.9583 27.6969 74.9583 25.0218C74.9587 22.5338 77.0942 21.25 80.1225 21.25C81.8524 21.25 83.6103 21.6779 84.9082 22.3736L84.9078 24.0321C83.5021 23.1495 81.7175 22.6948 80.0687 22.6948C77.9866 22.6948 76.5539 23.4168 76.5534 24.9152C76.5539 26.7607 78.7168 26.9481 80.7169 27.2694C83.1233 27.6437 85.5833 28.2854 85.5833 31.0675C85.5833 33.6627 83.4475 35 80.2302 35C78.4728 35 76.6342 34.5984 75.2826 33.8497V32.1643Z" fill="white"/>
<path fill-rule="evenodd" clip-rule="evenodd" d="M90.5072 30.1878L90.5076 22.8763H87.9445L87.9448 21.4782H90.5076V17.7686L92.0504 17.5V21.4786H96.2083V22.8763H92.0504V29.9192C92.0504 31.9083 92.3375 33.5481 94.3776 33.5485C95.0573 33.5481 95.7111 33.3602 96.2083 33.0643L96.208 34.57C95.7111 34.8117 94.953 35 94.1683 35C93.2269 35 92.1547 34.731 91.4224 33.8705C90.7684 33.0912 90.5072 31.9083 90.5072 30.1878Z" fill="white"/>
<path fill-rule="evenodd" clip-rule="evenodd" d="M106.795 32.0362V29.0729C105.83 28.7794 104.714 28.5924 103.698 28.5924C101.921 28.5924 100.093 29.1794 100.093 31.1286C100.093 32.8374 101.489 33.5847 103.012 33.5851C104.434 33.5851 105.805 32.9443 106.795 32.0362ZM99.864 34.092C99.0518 33.4515 98.5695 32.4905 98.5695 31.2622C98.5695 29.8737 99.1788 28.8859 100.143 28.2183C101.083 27.5779 102.352 27.3378 103.571 27.3374C104.714 27.3374 105.754 27.5244 106.795 27.8183V26.2966C106.795 25.0149 106.567 24.1874 105.882 23.5466C105.297 23.0126 104.435 22.7187 103.317 22.7187C101.845 22.7187 100.499 23.226 99.4837 24.0004V22.4252C100.499 21.7573 101.895 21.2504 103.47 21.25C104.968 21.2504 106.186 21.6508 107.024 22.3985C107.861 23.1462 108.293 24.3206 108.293 25.9229V31.6096C108.293 32.7309 108.546 33.5588 109.562 33.5584C109.867 33.5584 110.146 33.4787 110.375 33.3451L110.375 34.7069C110.096 34.8401 109.715 34.9203 109.283 34.9203C108.217 34.9203 107.379 34.3863 107.024 33.3714H106.973C106.034 34.226 104.51 35 102.809 35C101.743 35 100.677 34.7332 99.864 34.092Z" fill="white"/>
<path fill-rule="evenodd" clip-rule="evenodd" d="M115.299 30.1883L115.299 22.8763H112.736L112.736 21.4786H115.299V17.769L116.842 17.5V21.4786H121V22.8763H116.842V29.9192C116.842 31.9087 117.129 33.5485 119.169 33.5485C119.849 33.5485 120.503 33.3602 121 33.0647L121 34.57C120.503 34.8121 119.745 35 118.96 35C118.019 35 116.946 34.7314 116.214 33.8709C115.56 33.0916 115.299 31.9087 115.299 30.1883Z" fill="white"/>
<path fill-rule="evenodd" clip-rule="evenodd" d="M61.0111 26.1697C61.3729 26.7203 61.5846 27.3933 61.5846 28.1252C61.5846 29.9979 60.2147 31.4959 58.4308 31.4959C56.6473 31.4959 55.2769 29.9975 55.2769 28.1252C55.2769 26.2529 56.6473 24.7545 58.4311 24.7545C59.2268 24.7545 59.9388 25.0544 60.4849 25.5511L62.8034 22.6462C61.6177 21.7665 60.1139 21.2504 58.4311 21.25C54.3722 21.25 51.3476 24.2463 51.3472 28.1252C51.3472 32.0041 54.3722 35 58.4308 35C62.4893 35.0004 65.5139 32.0045 65.5139 28.1256C65.5139 26.514 64.9909 25.0564 64.0898 23.9011L61.0111 26.1697Z" fill="white"/>
<path fill-rule="evenodd" clip-rule="evenodd" d="M69.5726 18.75L72.5972 16.3356C72.2351 15.8324 71.8108 15.3835 71.3333 15L69.0556 18.0912C69.2515 18.284 69.4244 18.5058 69.5726 18.75Z" fill="white"/>
</g>
</g>
<defs>
<clipPath id="clip0_0_62">
<rect width="85" height="20" fill="white" transform="translate(36 15)"/>
</clipPath>
</defs>
</svg>
